<svg id="Layer_1" data-name="Layer 1" xmlns="http://www.w3.org/2000/svg" viewBox="0 0 197.31 94.61"><defs><style>.cls-1{fill:#fff;}</style></defs><title>magnolia-logo-M</title><path class="cls-1" d="M39,68.24s-1.08,1.83.33,2.74,3.08-.25,4.16-1.83S55.36,52.94,58.77,43.3c.83-3.83-2.75-2.08-2.41-2.08s-2.33.47-.45-3.3,3.77-6.54,5.49-6.7,5.54,1.55,7.09,1.55a7.5,7.5,0,0,0,4.44-1.11c1.38-.94,3.88-1.5,3.66.55s-1.11,3.55,0,4.66,8.76-4.19,12.91-5.21A28.88,28.88,0,0,1,98,30.72a7.39,7.39,0,0,1,3.29.76,8.54,8.54,0,0,1,2.18,2,14.76,14.76,0,0,1,2.3,3.2,10.9,10.9,0,0,1,.47,4.22c-.06,2.94-.67,4.36-2.2,7.65-1.83,3.94-5.15,7.53-8.14,11.8s-5.32,8.65-5.77,13c-.57,5.56-.55,13,3.35,17.39a59.05,59.05,0,0,0,17.38,13.2,76.36,76.36,0,0,0,23.58,7.37c17.45,2.55,35.28-.2,52.37-3.64,1.33-.26,2.66-.54,4-.9,6.43-1.78,29.27-8,34.7-9.2,0,5.54-25.39,15.63-35.47,19.06-16.1,5.49-32.85,9.12-49.95,8.63-12.85-.38-25.83-2.91-37.15-9A55.33,55.33,0,0,1,81.8,96.46c-5.15-8.66-5.89-20-.61-28.83,3.65-6.1,10.87-17.69,11.86-20.29,1-2.76,1.1-5.54-3.77-5.54s-7.57,2.1-7.43,7.76a40.28,40.28,0,0,1-4.1,18.07A37.62,37.62,0,0,1,66.47,80.2c-3.6,2.37-5,2.62-7.23,2.17s-.92-3.66.95-7.61C61.34,72.33,62,69.85,65,67.41s7.72-7.1,7.65-10.31c-.13-6,.33-8.54-1.44-9.64s-3.55,7-6.54,11.41-6.21,10.42-9.42,15S47.75,85,38.59,84.7,28.31,79,28.2,75.29s2.72-8.16,6.87-9.88C40.94,63,40.61,65.86,39,68.24Z" transform="translate(-28.2 -30.68)"/></svg>